<svg xmlns="http://www.w3.org/2000/svg" width="1200" height="820" viewBox="0 0 1200 820" role="img" aria-label="Platform reservation sample image">
  <defs>
    <linearGradient id="bg" x1="0" y1="0" x2="1" y2="1">
      <stop offset="0" stop-color="#f8fafc"/>
      <stop offset="1" stop-color="#e6f7f4"/>
    </linearGradient>
    <filter id="shadow" x="-20%" y="-20%" width="140%" height="140%">
      <feDropShadow dx="0" dy="18" stdDeviation="18" flood-color="#0a2540" flood-opacity=".16"/>
    </filter>
  </defs>
  <rect width="1200" height="820" fill="url(#bg)"/>
  <circle cx="990" cy="150" r="160" fill="#00d4b2" opacity=".22"/>
  <g filter="url(#shadow)">
    <rect x="175" y="135" width="850" height="550" rx="28" fill="#fff"/>
    <rect x="175" y="135" width="850" height="86" rx="28" fill="#0a2540"/>
    <rect x="175" y="190" width="850" height="31" fill="#0a2540"/>
    <circle cx="232" cy="178" r="13" fill="#00d4b2"/>
    <circle cx="272" cy="178" r="13" fill="#e2e8f0"/>
    <circle cx="312" cy="178" r="13" fill="#e2e8f0"/>
    <rect x="245" y="282" width="300" height="330" rx="20" fill="#f1f5f9"/>
    <rect x="600" y="282" width="340" height="70" rx="16" fill="#0a2540"/>
    <rect x="600" y="386" width="340" height="58" rx="14" fill="#e6f7f4"/>
    <rect x="600" y="472" width="250" height="24" rx="12" fill="#cbd5e1"/>
    <rect x="600" y="526" width="300" height="24" rx="12" fill="#cbd5e1"/>
    <rect x="600" y="580" width="180" height="24" rx="12" fill="#cbd5e1"/>
    <path d="M325 435l55 55 104-132" fill="none" stroke="#00d4b2" stroke-width="28" stroke-linecap="round" stroke-linejoin="round"/>
  </g>
</svg>
