<svg xmlns="http://www.w3.org/2000/svg" width="1200" height="820" viewBox="0 0 1200 820" role="img" aria-label="Booking calendar sample image">
  <defs>
    <linearGradient id="sky" x1="0" y1="0" x2="1" y2="1">
      <stop offset="0" stop-color="#fde68a"/>
      <stop offset=".48" stop-color="#fed7aa"/>
      <stop offset="1" stop-color="#bfdbfe"/>
    </linearGradient>
    <filter id="shadow" x="-20%" y="-20%" width="140%" height="140%">
      <feDropShadow dx="0" dy="22" stdDeviation="22" flood-color="#7c2d12" flood-opacity=".22"/>
    </filter>
  </defs>
  <rect width="1200" height="820" fill="url(#sky)"/>
  <circle cx="1010" cy="150" r="110" fill="#fff7ed" opacity=".76"/>
  <path d="M0 650c210-105 430-120 650-40s390 68 550-35v245H0z" fill="#2d8c5a" opacity=".72"/>
  <g filter="url(#shadow)">
    <rect x="210" y="150" width="780" height="500" rx="42" fill="#fff"/>
    <rect x="210" y="150" width="780" height="108" rx="42" fill="#d45b2c"/>
    <rect x="210" y="222" width="780" height="72" fill="#d45b2c"/>
    <g fill="#fff" opacity=".9">
      <rect x="320" y="100" width="42" height="105" rx="21"/>
      <rect x="838" y="100" width="42" height="105" rx="21"/>
    </g>
    <g fill="#f3f4f6">
      <rect x="290" y="332" width="122" height="86" rx="16"/>
      <rect x="452" y="332" width="122" height="86" rx="16"/>
      <rect x="614" y="332" width="122" height="86" rx="16"/>
      <rect x="776" y="332" width="122" height="86" rx="16"/>
      <rect x="290" y="458" width="122" height="86" rx="16"/>
      <rect x="452" y="458" width="122" height="86" rx="16"/>
      <rect x="614" y="458" width="122" height="86" rx="16"/>
      <rect x="776" y="458" width="122" height="86" rx="16"/>
    </g>
    <rect x="452" y="458" width="122" height="86" rx="16" fill="#2d8c5a"/>
    <path d="M486 503l20 20 38-48" fill="none" stroke="#fff" stroke-width="14" stroke-linecap="round" stroke-linejoin="round"/>
  </g>
</svg>
