<svg xmlns="http://www.w3.org/2000/svg" width="1200" height="820" viewBox="0 0 1200 820" role="img" aria-label="Family reservation sample image">
  <defs>
    <linearGradient id="bg" x1="0" y1="0" x2="1" y2="1">
      <stop offset="0" stop-color="#fff7ed"/>
      <stop offset="1" stop-color="#d2e9cb"/>
    </linearGradient>
  </defs>
  <rect width="1200" height="820" fill="url(#bg)"/>
  <path d="M0 610c180-65 360-70 560-20s410 55 640-40v270H0z" fill="#6f8f6a" opacity=".76"/>
  <g transform="translate(215 150)">
    <rect x="0" y="60" width="770" height="455" rx="38" fill="#fffdf8" stroke="#2b2a27" stroke-width="10"/>
    <path d="M0 165h770" stroke="#2b2a27" stroke-width="10"/>
    <circle cx="145" cy="315" r="72" fill="#ff914d" stroke="#2b2a27" stroke-width="9"/>
    <circle cx="375" cy="292" r="92" fill="#ffd1d1" stroke="#2b2a27" stroke-width="9"/>
    <circle cx="605" cy="330" r="62" fill="#d2e9cb" stroke="#2b2a27" stroke-width="9"/>
    <rect x="92" y="405" width="106" height="44" rx="22" fill="#2b2a27"/>
    <rect x="295" y="405" width="160" height="44" rx="22" fill="#2b2a27"/>
    <rect x="560" y="405" width="90" height="44" rx="22" fill="#2b2a27"/>
    <circle cx="120" cy="252" r="10" fill="#2b2a27"/>
    <circle cx="170" cy="252" r="10" fill="#2b2a27"/>
    <circle cx="345" cy="220" r="12" fill="#2b2a27"/>
    <circle cx="405" cy="220" r="12" fill="#2b2a27"/>
    <circle cx="585" cy="292" r="9" fill="#2b2a27"/>
    <circle cx="625" cy="292" r="9" fill="#2b2a27"/>
  </g>
</svg>
