<svg xmlns="http://www.w3.org/2000/svg" viewBox="0 0 900 520" role="img" aria-labelledby="title desc">
  <title id="title">館内装飾・大型POP</title>
  <desc id="desc">館内装飾や大型掲出物の販促制作を表すサムネイル</desc>
  <defs>
    <linearGradient id="bg" x1="0" y1="0" x2="1" y2="1">
      <stop offset="0" stop-color="#07111f"/>
      <stop offset="0.55" stop-color="#18283d"/>
      <stop offset="1" stop-color="#102f42"/>
    </linearGradient>
  </defs>
  <rect width="900" height="520" fill="url(#bg)"/>
  <path d="M90 438h720M132 100v338M450 76v362M768 100v338" stroke="#fff" stroke-opacity=".08" stroke-width="4"/>
  <g transform="translate(128 92)">
    <rect width="250" height="306" rx="18" fill="#f7fbff" filter="drop-shadow(0 24px 30px rgba(0,0,0,.38))"/>
    <rect x="24" y="26" width="202" height="54" rx="8" fill="#b91c1c"/>
    <text x="125" y="62" text-anchor="middle" font-family="Inter, system-ui, sans-serif" font-size="24" font-weight="900" fill="#fff">STORE POP</text>
    <rect x="24" y="112" width="202" height="18" rx="9" fill="#132235"/>
    <rect x="24" y="148" width="160" height="14" rx="7" fill="#132235" opacity=".44"/>
    <rect x="24" y="194" width="202" height="70" rx="12" fill="#14c78d" opacity=".22" stroke="#14c78d"/>
  </g>
  <g transform="translate(520 118)" font-family="Inter, system-ui, sans-serif">
    <rect width="250" height="240" rx="18" fill="#0d1c2c" stroke="#3b82f6" stroke-opacity=".5"/>
    <text x="30" y="52" font-size="22" font-weight="900" fill="#f7fbff">Display Plan</text>
    <rect x="32" y="86" width="72" height="72" rx="12" fill="#f59e0b"/>
    <rect x="126" y="88" width="90" height="16" rx="8" fill="#d9e6f2"/>
    <rect x="126" y="124" width="68" height="12" rx="6" fill="#a7b7c7"/>
    <rect x="32" y="188" width="184" height="14" rx="7" fill="#14c78d"/>
  </g>
</svg>
