<svg xmlns="http://www.w3.org/2000/svg" viewBox="0 0 900 520" role="img" aria-labelledby="title desc">
  <title id="title">食品フロア企画POP</title>
  <desc id="desc">食品フロア企画の店頭POPと販促ディレクションを表すサムネイル</desc>
  <defs>
    <linearGradient id="bg" x1="0" y1="0" x2="1" y2="1">
      <stop offset="0" stop-color="#081526"/>
      <stop offset="0.55" stop-color="#14324a"/>
      <stop offset="1" stop-color="#27172a"/>
    </linearGradient>
    <linearGradient id="paper" x1="0" y1="0" x2="1" y2="1">
      <stop offset="0" stop-color="#fff8eb"/>
      <stop offset="1" stop-color="#f0dfc2"/>
    </linearGradient>
  </defs>
  <rect width="900" height="520" fill="url(#bg)"/>
  <circle cx="760" cy="86" r="170" fill="#f59e0b" opacity=".12"/>
  <circle cx="126" cy="420" r="210" fill="#14c78d" opacity=".10"/>
  <g transform="translate(90 74)">
    <rect width="292" height="360" rx="20" fill="url(#paper)" filter="drop-shadow(0 22px 28px rgba(0,0,0,.35))"/>
    <rect x="30" y="34" width="232" height="76" rx="10" fill="#b91c1c"/>
    <text x="146" y="82" text-anchor="middle" font-family="Inter, system-ui, sans-serif" font-size="30" font-weight="900" fill="#fff">FOOD POP</text>
    <rect x="32" y="138" width="226" height="18" rx="9" fill="#132235"/>
    <rect x="32" y="172" width="184" height="14" rx="7" fill="#132235" opacity=".48"/>
    <rect x="32" y="216" width="92" height="92" rx="16" fill="#f59e0b"/>
    <rect x="144" y="216" width="116" height="30" rx="10" fill="#14c78d"/>
    <rect x="144" y="266" width="90" height="14" rx="7" fill="#132235" opacity=".35"/>
    <rect x="144" y="296" width="116" height="14" rx="7" fill="#132235" opacity=".25"/>
  </g>
  <g transform="translate(420 128)" font-family="Inter, system-ui, sans-serif">
    <rect width="360" height="248" rx="24" fill="#0d1c2c" stroke="#14c78d" stroke-opacity=".55"/>
    <text x="34" y="56" font-size="24" font-weight="900" fill="#f7fbff">Sales Promotion</text>
    <text x="34" y="96" font-size="16" font-weight="800" fill="#14c78d">Direction Flow</text>
    <path d="M52 142h248M52 190h248" stroke="#a7b7c7" stroke-width="12" stroke-linecap="round" opacity=".45"/>
    <circle cx="54" cy="142" r="18" fill="#14c78d"/>
    <circle cx="54" cy="190" r="18" fill="#3b82f6"/>
    <text x="86" y="149" font-size="15" fill="#d9e6f2">部門と訴求軸を整理</text>
    <text x="86" y="197" font-size="15" fill="#d9e6f2">制作チームと調整</text>
  </g>
</svg>
