<svg xmlns="http://www.w3.org/2000/svg" viewBox="0 0 900 520" role="img" aria-labelledby="title desc">
  <title id="title">A4フライヤー・サムネイル制作</title>
  <desc id="desc">A4フライヤーとWebサムネイルを横断した販促素材制作のサムネイル</desc>
  <defs>
    <linearGradient id="bg" x1="0" y1="0" x2="1" y2="1">
      <stop offset="0" stop-color="#081526"/>
      <stop offset="0.52" stop-color="#14294a"/>
      <stop offset="1" stop-color="#19142d"/>
    </linearGradient>
  </defs>
  <rect width="900" height="520" fill="url(#bg)"/>
  <g transform="translate(98 80)">
    <rect x="0" y="22" width="238" height="332" rx="18" fill="#f7fbff" filter="drop-shadow(0 20px 28px rgba(0,0,0,.36))"/>
    <rect x="28" y="52" width="182" height="54" rx="8" fill="#14c78d"/>
    <rect x="28" y="136" width="182" height="18" rx="9" fill="#132235"/>
    <rect x="28" y="174" width="126" height="14" rx="7" fill="#132235" opacity=".42"/>
    <rect x="28" y="222" width="78" height="78" rx="12" fill="#f59e0b"/>
    <rect x="126" y="224" width="84" height="18" rx="9" fill="#132235" opacity=".38"/>
  </g>
  <g transform="translate(362 138)">
    <rect width="208" height="142" rx="18" fill="#0d1c2c" stroke="#14c78d"/>
    <rect x="22" y="24" width="164" height="42" rx="8" fill="#f59e0b"/>
    <rect x="22" y="88" width="120" height="14" rx="7" fill="#d9e6f2"/>
    <rect x="22" y="116" width="150" height="10" rx="5" fill="#a7b7c7" opacity=".58"/>
  </g>
  <g transform="translate(604 118)" font-family="Inter, system-ui, sans-serif">
    <rect width="210" height="210" rx="22" fill="#132235" stroke="#3b82f6" stroke-opacity=".65"/>
    <text x="105" y="72" text-anchor="middle" font-size="22" font-weight="900" fill="#f7fbff">Thumbnail</text>
    <rect x="42" y="104" width="126" height="18" rx="9" fill="#14c78d"/>
    <rect x="58" y="144" width="94" height="12" rx="6" fill="#a7b7c7"/>
  </g>
  <text x="450" y="456" text-anchor="middle" font-family="Inter, system-ui, sans-serif" font-size="22" font-weight="900" fill="#f7fbff">Flyer / Thumbnail / Cross-media Tone</text>
</svg>
